<svg width="16" height="16" viewBox="0 0 16 16" fill="none" xmlns="http://www.w3.org/2000/svg">
    <g clip-path="url(#clip0_406_8)">
        <path d="M14.2527 11.2753C13.7553 10.8558 13.3557 10.3326 13.0818 9.74242C12.8078 9.15225 12.6661 8.50933 12.6667 7.85867V6C12.6667 3.654 10.924 1.712 8.66666 1.38667V0.666667C8.66666 0.489856 8.59642 0.320286 8.4714 0.195262C8.34637 0.0702379 8.1768 0 7.99999 0C7.82318 0 7.65361 0.0702379 7.52859 0.195262C7.40356 0.320286 7.33333 0.489856 7.33333 0.666667V1.38667C5.07533 1.712 3.33333 3.654 3.33333 6V7.85867C3.33358 8.51065 3.19121 9.15479 2.9162 9.74593C2.64119 10.3371 2.24019 10.8609 1.74133 11.2807C1.56103 11.4361 1.43253 11.6429 1.37302 11.8734C1.31352 12.1038 1.32585 12.347 1.40837 12.5703C1.49089 12.7935 1.63966 12.9863 1.83476 13.1226C2.02985 13.259 2.26196 13.3325 2.49999 13.3333H13.5C14.1433 13.3333 14.6667 12.81 14.6667 12.1667C14.6667 11.8253 14.518 11.5027 14.2527 11.2753ZM7.99999 16C8.57601 15.9992 9.13413 15.7999 9.5803 15.4355C10.0265 15.0712 10.3334 14.5642 10.4493 14H5.55066C5.6666 14.5642 5.97352 15.0712 6.41968 15.4355C6.86585 15.7999 7.42398 15.9992 7.99999 16Z" fill="#333D54"/>
    </g>
    <defs>
        <clipPath id="clip0_406_8">
            <rect width="16" height="16" fill="white"/>
        </clipPath>
    </defs>
</svg>
